<svg width="1200" height="800" viewBox="0 0 1200 800" fill="none" xmlns="http://www.w3.org/2000/svg">
  <defs>
    <linearGradient id="bg" x1="0" y1="0" x2="1" y2="1">
      <stop offset="0%" stop-color="#3B82F6" />
      <stop offset="100%" stop-color="#0F172A" />
    </linearGradient>
    <linearGradient id="wave" x1="0" y1="0" x2="1" y2="1">
      <stop offset="0%" stop-color="#ffffff" stop-opacity="0.15" />
      <stop offset="100%" stop-color="#ffffff" stop-opacity="0" />
    </linearGradient>
  </defs>
  <rect width="1200" height="800" rx="40" fill="url(#bg)" />
  <path d="M0 560C150 520 300 620 450 580C600 540 750 450 900 420C1050 390 1200 460 1200 460V800H0V560Z" fill="url(#wave)" />
  <circle cx="300" cy="250" r="110" fill="#60A5FA" opacity="0.9" />
  <circle cx="920" cy="200" r="86" fill="#93C5FD" opacity="0.7" />
  <rect x="180" y="380" width="220" height="150" rx="30" fill="#FFFFFF" opacity="0.15" />
  <rect x="390" y="240" width="340" height="90" rx="25" fill="#FFFFFF" opacity="0.18" />
  <rect x="810" y="360" width="260" height="110" rx="30" fill="#FFFFFF" opacity="0.15" />
  <rect x="660" y="520" width="330" height="120" rx="24" fill="#FFFFFF" opacity="0.18" />
  <path d="M420 520L560 410L640 470L730 360L860 470L980 340" stroke="#FFFFFF" stroke-width="10" stroke-linecap="round" stroke-linejoin="round" opacity="0.85" />
  <circle cx="740" cy="190" r="24" fill="#fff" opacity="0.9" />
  <circle cx="520" cy="120" r="35" fill="#FFFFFF" opacity="0.35" />
  <circle cx="880" cy="520" r="14" fill="#fff" opacity="0.85" />
</svg>
